<?xml version="1.0" standalone="no"?>
<!DOCTYPE svg PUBLIC "-//W3C//DTD SVG 20010904//EN"
 "http://www.w3.org/TR/2001/REC-SVG-20010904/DTD/svg10.dtd">
<svg version="1.0" xmlns="http://www.w3.org/2000/svg"
 width="768.000000pt" height="768.000000pt" viewBox="0 0 768.000000 768.000000"
 preserveAspectRatio="xMidYMid meet">
<metadata>
Created by potrace 1.11, written by Peter Selinger 2001-2013
</metadata>
<g transform="translate(0.000000,768.000000) scale(0.100000,-0.100000)"
fill="#000000" stroke="none">
<path d="M3137 7314 c-1 -1 -49 -5 -107 -8 -58 -2 -116 -7 -130 -10 -14 -2
-50 -7 -80 -10 -30 -3 -65 -7 -76 -10 -12 -2 -38 -7 -58 -10 -19 -3 -57 -11
-83 -17 -27 -6 -59 -13 -73 -15 -14 -3 -68 -16 -120 -31 -390 -104 -742 -285
-1069 -547 -82 -66 -274 -253 -339 -331 -23 -27 -48 -57 -55 -65 -22 -26 -62
-77 -77 -100 -8 -13 -24 -35 -36 -49 -20 -25 -53 -77 -127 -193 -20 -32 -34
-58 -30 -58 3 0 -1 -8 -9 -17 -48 -55 -205 -431 -244 -585 -1 -5 -2 -9 -4 -10
-1 -3 -4 -13 -13 -53 -3 -11 -13 -51 -22 -90 -9 -38 -18 -79 -20 -90 -1 -11
-8 -51 -15 -90 -14 -88 -20 -141 -26 -235 -7 -116 -10 -340 -4 -340 3 0 6 -28
6 -63 2 -82 16 -200 34 -287 5 -25 12 -61 15 -80 3 -19 10 -53 16 -75 5 -22
12 -49 14 -60 16 -80 88 -300 124 -380 10 -22 22 -51 26 -65 7 -23 108 -222
152 -300 29 -51 162 -247 188 -276 6 -6 28 -33 50 -60 107 -130 254 -277 378
-377 32 -26 64 -52 70 -57 41 -34 82 -63 152 -111 44 -30 81 -57 83 -61 2 -5
8 -8 13 -8 5 0 32 -15 61 -34 296 -189 764 -351 1108 -383 74 -7 105 -11 105
-13 0 -5 461 -6 470 -1 6 3 28 7 50 8 74 3 165 15 265 35 30 5 65 11 78 11 12
1 22 5 22 10 0 4 4 6 9 3 4 -3 57 8 117 25 60 16 117 31 127 34 9 2 22 7 27
10 5 3 18 8 27 10 10 2 32 9 48 16 17 7 32 13 35 13 22 5 127 52 132 60 4 6 8
8 8 3 0 -4 15 0 33 10 17 9 35 16 40 15 4 -1 7 3 7 10 0 6 2 9 6 6 3 -3 24 5
47 18 23 13 62 33 87 46 25 12 47 25 50 28 3 4 16 13 30 20 14 7 63 39 110 70
47 31 96 59 109 63 20 5 41 -11 139 -108 l115 -113 156 153 c86 84 225 221
309 304 l153 150 -34 33 c-18 18 -70 66 -115 107 -59 53 -82 81 -82 98 0 20
58 120 131 225 11 15 19 32 19 37 0 5 6 16 13 23 7 7 30 47 51 88 21 41 42 82
47 90 12 20 79 177 83 195 3 9 18 49 33 85 3 8 7 20 9 25 1 6 11 35 22 65 10
30 20 58 21 63 0 4 1 8 2 10 0 1 2 9 4 17 2 8 11 44 20 80 9 36 18 76 21 90
22 114 36 202 39 240 2 25 6 74 10 109 17 177 3 504 -30 679 -2 9 -6 43 -10
75 -4 31 -12 60 -16 63 -5 3 -7 9 -5 12 2 4 -4 43 -15 87 -11 44 -21 89 -24
99 -6 24 -25 87 -32 106 -4 8 -7 17 -8 20 -5 23 -29 91 -40 115 -7 17 -25 61
-40 99 -82 206 -256 488 -420 681 -64 74 -213 224 -300 300 -91 80 -309 245
-324 245 -5 0 -11 4 -13 8 -4 10 -135 92 -147 92 -5 0 -11 4 -13 9 -5 14 -288
153 -393 194 -86 33 -237 82 -280 91 -11 3 -60 14 -110 26 -49 12 -101 23
-115 25 -14 2 -41 6 -60 9 -97 16 -246 28 -378 30 -57 1 -104 1 -105 0z m188
-498 c149 -10 207 -18 365 -53 63 -14 135 -32 159 -40 24 -8 51 -16 60 -18 27
-5 185 -67 199 -78 6 -5 12 -7 12 -3 0 3 16 -3 35 -14 20 -11 42 -20 49 -20 8
0 16 -3 18 -7 2 -5 28 -20 58 -36 30 -15 73 -39 95 -52 22 -14 47 -28 55 -32
8 -3 17 -9 20 -12 3 -4 33 -25 67 -47 186 -123 467 -395 560 -542 10 -15 20
-29 23 -32 11 -9 102 -150 128 -198 52 -96 110 -219 136 -287 15 -38 30 -77
35 -85 5 -9 12 -31 16 -50 4 -19 12 -41 17 -47 6 -7 8 -13 4 -13 -3 0 -1 -12
5 -27 14 -36 56 -224 64 -283 3 -25 8 -62 11 -82 3 -20 8 -56 10 -80 6 -59 6
-343 0 -397 -11 -89 -25 -193 -33 -226 -2 -11 -6 -31 -9 -45 -3 -14 -14 -59
-25 -100 -11 -41 -22 -85 -25 -98 -20 -94 -143 -380 -216 -502 -36 -59 -148
-229 -161 -242 -7 -7 -30 -36 -52 -63 -302 -381 -759 -671 -1250 -794 -44 -11
-93 -22 -110 -24 -16 -3 -46 -8 -65 -11 -82 -14 -98 -17 -160 -23 -130 -15
-559 -6 -589 11 -3 2 -30 6 -59 10 -81 10 -255 53 -372 92 -119 40 -131 45
-295 126 -124 60 -131 64 -202 111 -23 15 -46 27 -52 27 -6 0 -11 4 -11 8 0 4
-13 15 -28 24 -51 30 -205 157 -282 232 -102 99 -145 147 -218 241 -34 44 -67
86 -73 93 -41 50 -217 358 -224 392 -1 3 -7 19 -15 35 -7 17 -21 49 -31 72
-11 24 -19 47 -19 53 0 6 -4 18 -9 28 -19 36 -84 279 -95 357 -3 22 -11 69
-17 105 -14 80 -20 478 -9 540 4 25 11 70 14 100 7 58 13 95 16 95 1 0 3 11 5
25 5 33 14 76 27 125 5 22 11 47 13 56 8 41 104 302 125 339 4 8 27 53 51 100
23 47 62 115 86 153 24 37 43 72 43 77 0 6 4 10 8 10 5 0 28 29 51 65 24 36
47 65 51 65 5 0 11 8 14 18 6 16 45 61 152 174 160 168 392 340 594 441 36 17
67 34 70 38 3 3 30 15 60 28 30 12 64 26 75 31 21 8 56 22 65 25 3 1 50 16
105 34 107 35 278 76 360 86 28 3 61 8 75 10 14 2 79 7 145 11 66 3 121 7 122
8 2 2 44 0 178 -8z"/>
<path d="M4314 5357 c-27 -15 -32 -25 -30 -63 1 -19 -2 -34 -5 -34 -7 0 -2
-56 5 -69 3 -4 1 -13 -4 -20 -4 -8 -5 -25 -1 -40 4 -14 4 -39 1 -56 -3 -16 -3
-42 1 -57 4 -16 4 -28 -1 -28 -5 0 -5 -12 -1 -28 5 -15 5 -37 0 -49 -4 -12 -4
-25 0 -28 5 -3 5 -20 1 -39 -4 -19 -6 -37 -3 -39 6 -7 7 -286 0 -293 -3 -3 -4
-11 -1 -18 8 -21 11 -86 4 -86 -4 0 -6 -12 -3 -27 6 -47 6 -263 0 -269 -3 -3
-4 -11 -1 -18 9 -22 10 -86 2 -86 -4 0 -3 -11 2 -25 5 -13 5 -27 1 -30 -5 -3
-5 -22 0 -42 4 -21 4 -39 0 -41 -5 -2 -5 -18 -1 -38 4 -19 4 -36 -1 -39 -4 -3
-6 -11 -3 -18 8 -23 10 -87 2 -87 -4 0 -3 -11 2 -25 5 -13 5 -27 1 -30 -5 -3
-5 -22 0 -42 5 -24 4 -39 -2 -41 -5 -2 -7 -8 -4 -13 8 -12 10 -298 2 -305 -3
-3 -4 -11 -1 -18 8 -21 11 -86 4 -86 -4 0 -6 -12 -3 -27 6 -47 6 -260 -1 -271
-3 -5 0 -15 8 -21 10 -9 16 -8 26 4 7 8 16 12 21 9 5 -3 9 -1 9 4 0 5 18 22
41 36 22 15 55 40 72 54 70 61 123 108 145 132 96 101 121 130 147 165 17 22
32 42 36 45 9 8 86 123 110 166 47 83 128 244 122 244 -3 0 -1 6 6 13 7 10 11
253 11 834 0 753 -1 821 -16 834 -14 11 -83 14 -349 15 -212 1 -339 -2 -351
-9z"/>
<path d="M2219 5018 c-11 -4 -23 -18 -27 -30 -10 -29 -8 -2235 1 -2265 8 -23
45 -51 74 -57 10 -1 25 -6 33 -9 8 -3 60 -20 115 -38 55 -17 120 -38 145 -46
343 -111 346 -111 368 -65 5 9 8 572 7 1249 0 1120 -2 1234 -16 1249 -15 14
-58 16 -348 17 -183 1 -341 -1 -352 -5z"/>
<path d="M1189 4439 c-11 -11 -20 -31 -20 -46 -4 -73 2 -224 11 -273 5 -30 12
-69 15 -86 8 -50 45 -170 76 -249 7 -16 13 -32 14 -35 17 -49 128 -274 137
-278 5 -2 8 -8 8 -13 0 -15 118 -187 184 -269 65 -79 231 -248 276 -280 l27
-19 1 74 c0 41 1 78 3 83 1 4 0 12 -1 17 -2 9 -2 62 -1 240 1 89 1 213 1 233
0 9 0 44 1 77 0 33 0 67 0 75 -3 132 -2 231 4 239 3 6 3 11 -2 11 -8 0 -9 91
0 113 2 7 1 21 -3 32 -4 11 -4 32 1 47 4 15 4 30 -1 33 -5 3 -5 18 0 34 4 15
4 34 0 41 -5 7 -5 22 -1 33 4 11 5 38 1 59 -4 21 -4 38 0 38 9 0 -4 68 -15 78
-4 4 -162 8 -352 8 -326 2 -346 1 -364 -17z"/>
<path d="M3283 3912 c-16 -12 -17 -59 -18 -709 0 -464 3 -703 10 -717 12 -23
62 -28 140 -15 22 4 60 10 85 14 127 17 328 76 434 126 82 38 78 4 80 677 2
545 0 597 -15 616 -17 20 -25 21 -358 21 -260 0 -345 -3 -358 -13z"/>
<path d="M5839 2413 c-14 -16 -152 -153 -307 -305 -155 -152 -282 -281 -282
-286 0 -5 24 -29 53 -55 29 -25 200 -192 380 -369 179 -178 442 -438 584 -578
218 -215 268 -261 324 -288 36 -19 79 -35 95 -38 49 -7 147 -4 189 7 22 5 51
12 65 15 14 3 32 11 40 18 8 8 20 15 25 17 29 11 83 56 105 86 14 19 30 40 35
46 18 19 54 118 64 170 16 86 5 162 -35 246 -36 74 -56 95 -672 709 -350 347
-636 632 -637 632 0 0 -12 -12 -26 -27z"/>
</g>
</svg>
